HIERARCHY
ROOT Hips
{
  OFFSET 0 0.240689 0
  CHANNELS 6 Xposition Yposition Zposition Zrotation Xrotation Yrotation
  JOINT Bip01_Spine0
  {
    OFFSET 0 -24.7459 49.7988
    CHANNELS 6 Xposition Yposition Zposition Zrotation Xrotation Yrotation
    JOINT Bip01_Pelvis
    {
      OFFSET 0 0 0
      CHANNELS 6 Xposition Yposition Zposition Zrotation Xrotation Yrotation
      JOINT Bip01_Spine0_Tail
      {
        OFFSET -6.47486 -3.86022 0
        CHANNELS 6 Xposition Yposition Zposition Zrotation Xrotation Yrotation
        JOINT Bip01_Spine0_Tail1
        {
          OFFSET 10.3837 -0.00825882 0
          CHANNELS 6 Xposition Yposition Zposition Zrotation Xrotation Yrotation
          JOINT Bip01_Spine0_Tail2
          {
            OFFSET 10.3837 -0.00826263 0
            CHANNELS 6 Xposition Yposition Zposition Zrotation Xrotation Yrotation
            JOINT Bip01_Spine0_Tail3
            {
              OFFSET 10.3837 -0.00825882 0
              CHANNELS 6 Xposition Yposition Zposition Zrotation Xrotation Yrotation
              JOINT Bip01_Spine0_Tail4
              {
                OFFSET 10.3837 -0.00826263 0
                CHANNELS 6 Xposition Yposition Zposition Zrotation Xrotation Yrotation
                End Site
                {
                  OFFSET 0 0 0
                }
              }
            }
          }
        }
      }
      JOINT Bip01_R_Thigh
      {
        OFFSET 0 -1.52588e-005 -8.75617
        CHANNELS 6 Xposition Yposition Zposition Zrotation Xrotation Yrotation
        JOINT Bip01_R_Calf
        {
          OFFSET 19.7638 0 0
          CHANNELS 6 Xposition Yposition Zposition Zrotation Xrotation Yrotation
          JOINT Bip01_R_Foot
          {
            OFFSET 18.6534 0 0
            CHANNELS 6 Xposition Yposition Zposition Zrotation Xrotation Yrotation
            JOINT Bip01_R_Toe0
            {
              OFFSET 5.09145 13.9567 0
              CHANNELS 6 Xposition Yposition Zposition Zrotation Xrotation Yrotation
              JOINT Bip01_R_Toe01
              {
                OFFSET 4.28803 0 0
                CHANNELS 6 Xposition Yposition Zposition Zrotation Xrotation Yrotation
                JOINT Bip01_R_Toe02
                {
                  OFFSET 3.85801 0 0
                  CHANNELS 6 Xposition Yposition Zposition Zrotation Xrotation Yrotation
                  End Site
                  {
                    OFFSET 0 0 0
                  }
                }
              }
            }
          }
        }
      }
      JOINT Bip01_L_Thigh
      {
        OFFSET 0 1.52588e-005 8.75617
        CHANNELS 6 Xposition Yposition Zposition Zrotation Xrotation Yrotation
        JOINT Bip01_L_Calf
        {
          OFFSET 19.7638 0 0
          CHANNELS 6 Xposition Yposition Zposition Zrotation Xrotation Yrotation
          JOINT Bip01_L_Foot
          {
            OFFSET 18.6534 0 0
            CHANNELS 6 Xposition Yposition Zposition Zrotation Xrotation Yrotation
            JOINT Bip01_L_Toe0
            {
              OFFSET 5.09144 13.9567 0
              CHANNELS 6 Xposition Yposition Zposition Zrotation Xrotation Yrotation
              JOINT Bip01_L_Toe01
              {
                OFFSET 4.28802 0 0
                CHANNELS 6 Xposition Yposition Zposition Zrotation Xrotation Yrotation
                JOINT Bip01_L_Toe02
                {
                  OFFSET 3.85801 0 0
                  CHANNELS 6 Xposition Yposition Zposition Zrotation Xrotation Yrotation
                  End Site
                  {
                    OFFSET 0 0 0
                  }
                }
              }
            }
          }
        }
      }
      JOINT Bip01_Spine
      {
        OFFSET 9.14835 -0.00640869 -1.1e-005
        CHANNELS 6 Xposition Yposition Zposition Zrotation Xrotation Yrotation
        JOINT Bip01_Spine1
        {
          OFFSET 8.04366 -0.00638199 0
          CHANNELS 6 Xposition Yposition Zposition Zrotation Xrotation Yrotation
          JOINT Bip01_Spine2
          {
            OFFSET 8.04367 -0.00639343 0
            CHANNELS 6 Xposition Yposition Zposition Zrotation Xrotation Yrotation
            JOINT Bip01_Spine3
            {
              OFFSET 8.04304 -0.00831222 0
              CHANNELS 6 Xposition Yposition Zposition Zrotation Xrotation Yrotation
              JOINT Bip01_Neck
              {
                OFFSET 10.6685 1.06813 0
                CHANNELS 6 Xposition Yposition Zposition Zrotation Xrotation Yrotation
                JOINT Bip01_R_Clavicle
                {
                  OFFSET -3.21661 -4.89635 -9.04802
                  CHANNELS 6 Xposition Yposition Zposition Zrotation Xrotation Yrotation
                  JOINT Bip01_R_UpperArm
                  {
                    OFFSET 19.0492 0 0
                    CHANNELS 6 Xposition Yposition Zposition Zrotation Xrotation Yrotation
                    JOINT Bip01_R_Forearm
                    {
                      OFFSET 10.3706 0 0
                      CHANNELS 6 Xposition Yposition Zposition Zrotation Xrotation Yrotation
                      JOINT Bip01_R_Hand
                      {
                        OFFSET 22.8632 0 0
                        CHANNELS 6 Xposition Yposition Zposition Zrotation Xrotation Yrotation
                        JOINT Bip01_R_Finger0
                        {
                          OFFSET 6.48259 0.103651 0.504496
                          CHANNELS 6 Xposition Yposition Zposition Zrotation Xrotation Yrotation
                          JOINT Bip01_R_Finger01
                          {
                            OFFSET 3.66847 0 0
                            CHANNELS 6 Xposition Yposition Zposition Zrotation Xrotation Yrotation
                            End Site
                            {
                              OFFSET 0 0 0
                            }
                          }
                        }
                      }
                    }
                  }
                }
                JOINT Bip01_L_Clavicle
                {
                  OFFSET -3.21661 -4.89641 9.04797
                  CHANNELS 6 Xposition Yposition Zposition Zrotation Xrotation Yrotation
                  JOINT Bip01_L_UpperArm
                  {
                    OFFSET 19.0492 0 0
                    CHANNELS 6 Xposition Yposition Zposition Zrotation Xrotation Yrotation
                    JOINT Bip01_L_Forearm
                    {
                      OFFSET 10.3706 0 0
                      CHANNELS 6 Xposition Yposition Zposition Zrotation Xrotation Yrotation
                      JOINT Bip01_L_Hand
                      {
                        OFFSET 22.8631 0 0
                        CHANNELS 6 Xposition Yposition Zposition Zrotation Xrotation Yrotation
                        JOINT Bip01_L_Finger0
                        {
                          OFFSET 6.48257 0.103655 -0.504492
                          CHANNELS 6 Xposition Yposition Zposition Zrotation Xrotation Yrotation
                          JOINT Bip01_L_Finger01
                          {
                            OFFSET 3.66844 0 0
                            CHANNELS 6 Xposition Yposition Zposition Zrotation Xrotation Yrotation
                            End Site
                            {
                              OFFSET 0 0 0
                            }
                          }
                        }
                      }
                    }
                  }
                }
                JOINT Bip01_Neck1
                {
                  OFFSET 7.52459 -0.00656509 0
                  CHANNELS 6 Xposition Yposition Zposition Zrotation Xrotation Yrotation
                  JOINT Bip01_Neck2
                  {
                    OFFSET 8.4783 -0.00588226 0
                    CHANNELS 6 Xposition Yposition Zposition Zrotation Xrotation Yrotation
                    JOINT Bip01_Head
                    {
                      OFFSET 8.41606 0 0
                      CHANNELS 6 Xposition Yposition Zposition Zrotation Xrotation Yrotation
                      JOINT EyesBlue
                      {
                        OFFSET 0 0 0
                        CHANNELS 6 Xposition Yposition Zposition Zrotation Xrotation Yrotation
                        JOINT EyesBlue_2
                        {
                          OFFSET 0 -0.500007 0
                          CHANNELS 6 Xposition Yposition Zposition Zrotation Xrotation Yrotation
                          End Site
                          {
                            OFFSET 0 0 0
                          }
                        }
                      }
                      JOINT Bip01_Head2_Eyeleds
                      {
                        OFFSET 6.52751 7.61746 2.2e-005
                        CHANNELS 6 Xposition Yposition Zposition Zrotation Xrotation Yrotation
                        End Site
                        {
                          OFFSET 0 0 0
                        }
                      }
                      JOINT Bip01_Head_Muzzle
                      {
                        OFFSET 2.88628 13.9448 3.88994
                        CHANNELS 6 Xposition Yposition Zposition Zrotation Xrotation Yrotation
                        End Site
                        {
                          OFFSET 0 0 0
                        }
                      }
                      JOINT Bip01_Head1_Jaw
                      {
                        OFFSET 0.271065 1.32405 0
                        CHANNELS 6 Xposition Yposition Zposition Zrotation Xrotation Yrotation
                        JOINT _Bip01_Head11_TungeControler
                        {
                          OFFSET 4.61616 5.82872 0
                          CHANNELS 6 Xposition Yposition Zposition Zrotation Xrotation Yrotation
                          JOINT _Bip01_Ponytail3_tunge
                          {
                            OFFSET 5.17785 2.98805 0
                            CHANNELS 6 Xposition Yposition Zposition Zrotation Xrotation Yrotation
                            JOINT Bip01_Ponytail31
                            {
                              OFFSET 5.57569 0 0
                              CHANNELS 6 Xposition Yposition Zposition Zrotation Xrotation Yrotation
                              JOINT Bip01_Ponytail32
                              {
                                OFFSET 2.93165 0 0
                                CHANNELS 6 Xposition Yposition Zposition Zrotation Xrotation Yrotation
                                JOINT Bip01_Ponytail3Nub
                                {
                                  OFFSET 3.30155 0 0
                                  CHANNELS 6 Xposition Yposition Zposition Zrotation Xrotation Yrotation
                                  End Site
                                  {
                                    OFFSET 0 0 0
                                  }
                                }
                              }
                            }
                          }
                        }
                        JOINT Bip01_Head_JawNub
                        {
                          OFFSET 15.5776 -0.000389099 0
                          CHANNELS 6 Xposition Yposition Zposition Zrotation Xrotation Yrotation
                          End Site
                          {
                            OFFSET 0 0 0
                          }
                        }
                      }
                      JOINT Bip01_Ponytail2
                      {
                        OFFSET 9.40334 1.03973 -6.51764
                        CHANNELS 6 Xposition Yposition Zposition Zrotation Xrotation Yrotation
                        JOINT Bip01_Ponytail21
                        {
                          OFFSET 2.77018 -0.00640106 1.33514e-005
                          CHANNELS 6 Xposition Yposition Zposition Zrotation Xrotation Yrotation
                          End Site
                          {
                            OFFSET 0 0 0
                          }
                        }
                      }
                      JOINT Bip01_Ponytail1
                      {
                        OFFSET 9.40368 1.03969 6.51768
                        CHANNELS 6 Xposition Yposition Zposition Zrotation Xrotation Yrotation
                        JOINT Bip01_Ponytail11
                        {
                          OFFSET 2.77018 -0.00640487 0
                          CHANNELS 6 Xposition Yposition Zposition Zrotation Xrotation Yrotation
                          End Site
                          {
                            OFFSET 0 0 0
                          }
                        }
                      }
                    }
                  }
                }
              }
            }
          }
        }
      }
    }
  }
}
MOTION
Frames:	4
Frame Time:	0.0333333
0 0 -1e-006 -0 -90 -0 -1.63258 -24.5067 50.4629 93.6468 -0.00062969 87.4122 0 0 0 -90 -3.50835e-015 -90 -6.45929 -3.86079 0.44028 136.812 2.22602 -6.42499 10.3793 -0.007175 1.63442e-010 -26.1839 -0.444315 -3.58277 10.3834 -0.00827 2.38562e-010 -10.2739 0.643854 -3.54744 10.3852 -0.008052 2.85306e-010 16.3167 -1.69328 -8.01494 10.3847 -0.008152 3.40833e-010 13.1384 -0.816993 -3.49577 9e-006 -1.5e-005 -8.75617 -93.6883 -17.1491 170.652 19.7638 0 0 -58.8533 0.000308626 0.00103161 18.6534 7.10543e-015 7.10543e-015 -28.7526 -1.1759 6.3216 5.09143 13.9567 7.57121e-008 115.333 3.51056 2.47564 4.288 -1e-006 7.10543e-014 53.6716 8.43271 1.28952 3.85799 1.77636e-015 -3.55271e-015 -45 -1.17148e-005 1.14074e-007 -1.7e-005 1.1e-005 8.75617 -109.372 -3.51483 179.47 19.7638 2e-006 -2.84217e-014 -64.1808 4.76465e-005 0.00020966 18.6534 3e-006 -6.03961e-014 -26.3639 1.10426 -1.32859 5.09143 13.9567 -8.58958e-007 115.669 0.0112507 5.02238 4.288 0 1e-006 51.474 -6.03002 0.26355 3.85799 -1.27898e-013 -2e-006 -45 -1.36805e-005 -1.53923e-005 9.12717 -0.006404 -0.622128 2.03988 0.226734 6.34708 8.04366 -0.006401 -2.89352e-009 4.32995e-005 5.77772e-005 2.45638 8.04367 -0.006401 -1.44859e-009 -1.30323 -0.0557469 2.45112 8.04304 -0.008319 -1.00975e-009 -6.24121 -0.428684 3.95137 10.67 1.06796 1.99332e-006 -28.4631 -6.53779 -2.73379 -2.27615 -4.5034 -9.52529 13.4899 -87.4105 -79.8579 19.0492 -3.55272e-015 7.10543e-015 90.6263 17.8407 -99.8216 10.3706 -8.88179e-015 2.66453e-015 -41.3114 0.0002944 0.000445801 22.8631 3e-006 -3.77476e-013 -20.4292 16.5866 0.334121 6.48256 0.103653 0.504498 -68.7322 -2.18849 -14.2873 3.66843 1e-006 1e-006 34.6071 1.77704e-005 -1.2445e-006 -1.39975 -6.5665 8.43111 -154.876 78.3135 -111.722 19.0492 1.5632e-013 7e-006 100.442 -15.912 107.412 10.3706 -1e-006 -2.31815e-013 -36.8704 0.0013902 0.00182777 22.8631 -1e-006 -2.0961e-013 -16.8205 -6.65951 2.04011 6.48255 0.103653 -0.504496 -81.8648 -0.685287 15.4842 3.66843 1e-006 -2e-006 40.107 -3.26591e-005 1.52782e-005 7.52562 -0.006725 -6.38689e-012 -11.0927 12.1156 0.119871 8.47686 -0.006454 4.17299e-010 8.24599 -16.8399 -2.73216 8.41605 7.10543e-015 -3.55271e-015 -68.0765 12.629 0.00996085 -3e-006 1e-006 -3e-006 -23.1098 1.37701e-015 90 -4.42153e-008 -0.5 5.28795e-006 -72.5839 90 162.584 0 0 0 -113.549 1.52588e-005 -180 2.8863 13.9448 3.88993 -22.989 1.37021e-015 90 0 0 0 -81.974 -6.10352e-005 -180 0 0 0 -108.721 6.55918e-006 -6.51288e-005 0 0 0 120.523 0.94604 -2.55006 0 0 0 5.36671 -1.95044e-006 6.88555e-007 0 0 0 -17.3062 2.14154e-005 -1.60018e-006 0 0 0 -26.1943 -2.86529e-005 -1.17201e-005 15.5776 -0.000396 -6.99967e-006 -7.95139e-016 8.91425e-015 -2.48481e-016 9.40334 1.03972 -6.51764 -25.2447 22.603 18.1009 2.77017 -0.006404 1.00236e-006 2.43578 6.84545 -7.49568 9.40368 1.03968 6.51767 -25.2452 -22.6038 -18.0992 2.77018 -0.00641201 -1.0017e-006 2.43572 -6.84869 7.49742 
0 0 -1e-006 -0 -90 -0 -1.63824 -24.4698 50.4629 93.6471 -0.000620021 87.4123 0 0 0 -90 -3.50835e-015 -90 -6.45929 -3.86079 0.44028 136.729 2.24299 -6.33809 10.3793 -0.007175 1.63219e-010 -26.2668 -0.431446 -3.49969 10.3834 -0.00827 2.36156e-010 -10.0242 0.613823 -3.46821 10.3852 -0.008052 2.81079e-010 16.2453 -1.64888 -7.82945 10.3847 -0.008152 3.35392e-010 13.0567 -0.793126 -3.41585 9e-006 -1.5e-005 -8.75617 -93.5077 -17.1691 170.693 19.7638 -3.55271e-015 7.10543e-015 -58.7251 0.000310942 0.00103092 18.6534 1.42109e-014 -3.55271e-015 -28.5813 -1.18613 6.33712 5.09143 13.9567 4.82476e-008 115.208 3.49797 2.46817 4.288 -1e-006 6.75016e-014 53.6716 8.43271 1.28952 3.85799 8.43769e-015 -3.55271e-015 -45 -1.16311e-005 1.8482e-007 -1.7e-005 1.1e-005 8.75617 -109.201 -3.51284 179.475 19.7638 2e-006 -3.01981e-014 -64.0988 4.79485e-005 0.000209595 18.6534 3e-006 -5.32907e-014 -26.1268 1.0958 -1.32791 5.09143 13.9567 -8.50105e-007 115.537 0.00913516 5.01788 4.288 1.42109e-014 1e-006 51.474 -6.03002 0.26355 3.85799 -1.20792e-013 -2e-006 -45 -1.37317e-005 -1.5441e-005 9.12717 -0.006404 -0.622128 2.01555 0.224028 6.34718 8.04366 -0.006401 -2.88821e-009 4.32979e-005 5.77626e-005 2.45662 8.04367 -0.006401 -1.44499e-009 -1.39966 -0.0598742 2.45101 8.04304 -0.008319 -9.86695e-010 -6.21751 -0.42502 3.93302 10.67 1.06796 1.99256e-006 -28.6632 -6.55392 -2.83663 -2.27441 -4.50695 -9.52398 15.2503 -87.3674 -78.2874 19.0492 1.77636e-015 7.10543e-015 90.7777 18.1061 -99.8432 10.3706 -3.55272e-015 6.21725e-015 -40.6623 0.000299411 0.00044247 22.8631 3e-006 -3.73035e-013 -20.6828 16.7014 0.26057 6.48256 0.103653 0.504498 -68.7322 -2.18849 -14.2873 3.66843 1e-006 1e-006 34.6071 1.76587e-005 -1.17939e-006 -1.36584 -6.57471 8.43033 -154.384 78.2571 -112.029 19.0492 1.52767e-013 7e-006 100.566 -16.2856 107.421 10.3706 -1e-006 -2.27374e-013 -36.0943 0.00141478 0.00180856 22.8631 -1e-006 -2.03393e-013 -17.0719 -6.65447 2.04672 6.48255 0.103653 -0.504496 -81.9022 -0.695634 15.4838 3.66843 1e-006 -2e-006 40.107 -3.248e-005 1.51598e-005 7.52562 -0.006725 -9.722e-012 -11.2668 12.2131 0.0421971 8.47686 -0.006454 4.2794e-010 8.03891 -16.9109 -2.84267 8.41605 0 3.55271e-015 -67.4782 12.9412 0.168735 -3e-006 1e-006 -3e-006 -23.1098 1.37701e-015 90 -4.62347e-008 -0.5 5.28762e-006 -72.8414 90 162.841 0 0 0 -113.549 1.52588e-005 -180 2.8863 13.9448 3.88993 -22.989 1.37021e-015 90 0 0 0 -82.6464 -6.10352e-005 -180 0 0 0 -111.035 6.89444e-006 -5.95228e-005 0 0 0 123.16 0.757102 -2.03996 0 0 0 4.25965 -1.75873e-006 6.76684e-007 0 0 0 -18.3714 3.36597e-005 -2.30911e-006 0 0 0 -26.1943 -4.35831e-005 -1.79271e-005 15.5776 -0.000396 -6.99971e-006 3.18055e-015 -5.32681e-016 -6.58474e-016 9.40334 1.03972 -6.51764 -24.9876 22.6905 17.8039 2.77017 -0.006404 1.00234e-006 2.43448 6.82617 -7.47442 9.40368 1.03968 6.51767 -25.0304 -22.7765 -17.6437 2.77018 -0.00641201 -1.0017e-006 2.42773 -7.15636 7.65281 
0 0 -1e-006 -0 -90 -0 -1.64245 -24.4389 50.4629 93.6468 -0.00062969 87.4122 0 0 0 -90 -3.50835e-015 -90 -6.45929 -3.86079 0.44028 136.501 2.28937 -6.09709 10.3793 -0.007175 1.6251e-010 -26.4967 -0.39638 -3.26939 10.3834 -0.00827 2.29438e-010 -9.33189 0.534218 -3.24734 10.3852 -0.008052 2.69529e-010 16.0468 -1.52699 -7.315 10.3847 -0.008152 3.20554e-010 12.8298 -0.728145 -3.19388 9e-006 -1.5e-005 -8.75617 -93.3351 -17.1914 170.735 19.7638 -7.10543e-015 3.55271e-015 -58.6052 0.000313106 0.00103027 18.6534 0 7.10543e-015 -28.3903 -1.17523 6.34364 5.09143 13.9567 2.11218e-008 115.061 3.49092 2.47557 4.288 -1e-006 6.39488e-014 53.6716 8.43271 1.28952 3.85799 -4.44089e-016 -3.55271e-015 -45 -1.15528e-005 2.51333e-007 -1.7e-005 1.1e-005 8.75617 -109.034 -3.51191 179.482 19.7638 2e-006 -3.19744e-014 -64.0161 4.82531e-005 0.000209529 18.6534 3e-006 -6.03961e-014 -25.8845 1.089 -1.32857 5.09143 13.9567 -8.41e-007 115.397 0.00685501 5.01314 4.288 7.10543e-015 1e-006 51.474 -6.03002 0.26355 3.85799 -1.35003e-013 -2e-006 -45 -1.37779e-005 -1.5485e-005 9.12717 -0.006404 -0.622128 1.99298 0.221518 6.34727 8.04366 -0.006401 -2.88242e-009 4.32964e-005 5.77423e-005 2.45685 8.04367 -0.006401 -1.44153e-009 -1.48915 -0.0637049 2.45092 8.04304 -0.008319 -9.65132e-010 -6.19551 -0.421633 3.916 10.67 1.06796 1.99187e-006 -28.8512 -6.56757 -2.93795 -2.27398 -4.51048 -9.52241 16.9824 -87.3263 -76.7291 19.0492 -1.77636e-015 0 90.916 18.3493 -99.868 10.3706 1.42109e-014 3.55271e-015 -40.0773 0.000303894 0.000439417 22.8631 3e-006 -3.64153e-013 -20.908 16.8118 0.194613 6.48256 0.103653 0.504498 -68.7322 -2.18849 -14.2873 3.66843 1e-006 1e-006 34.6071 1.75436e-005 -1.11544e-006 -1.33392 -6.58194 8.42978 -153.905 78.2036 -112.34 19.0492 1.59872e-013 7e-006 100.679 -16.6252 107.429 10.3706 -1e-006 -2.23821e-013 -35.3953 0.00143669 0.00179098 22.8631 -1e-006 -2.10054e-013 -17.2877 -6.64986 2.05443 6.48255 0.103653 -0.504496 -81.9391 -0.705847 15.4833 3.66843 1e-006 -2e-006 40.107 -3.22927e-005 1.50333e-005 7.52562 -0.006725 -1.2661e-011 -11.4307 12.3117 -0.0343744 8.47686 -0.006454 4.38745e-010 7.8429 -16.9678 -2.95161 8.41605 -1.06581e-014 -3.55271e-015 -66.9519 13.2316 0.314029 -3e-006 1e-006 -3e-006 -23.1098 1.37701e-015 90 -4.81747e-008 -0.5 5.28728e-006 -73.1126 90 163.113 0 0 0 -113.549 7.01671e-015 -180 2.8863 13.9448 3.88993 -22.989 1.37021e-015 90 0 0 0 -83.3187 -4.57764e-005 -180 0 0 0 -113.348 7.16591e-006 -5.48146e-005 0 0 0 125.8 0.567982 -1.52991 0 0 0 3.15261 -1.42924e-006 5.85395e-007 0 0 0 -19.4365 5.27499e-005 -3.06109e-006 0 0 0 -26.1943 -6.42728e-005 -2.71139e-005 15.5776 -0.000396 -6.99974e-006 1.59028e-015 5.19325e-015 -6.95746e-016 9.40334 1.03972 -6.51764 -24.3354 22.9062 17.0514 2.77017 -0.006404 1.00232e-006 2.43131 6.77751 -7.42074 9.40368 1.03968 6.51767 -24.4804 -23.2052 -16.4882 2.77018 -0.00641201 -1.00168e-006 2.41127 -7.93324 8.04543 
0 0 -1e-006 -0 -90 -0 -1.64382 -24.4175 50.4629 93.6468 -0.00062969 87.4122 0 0 0 -90 -3.50835e-015 -90 -6.45929 -3.86079 0.44028 136.156 2.35776 -5.73178 10.3793 -0.007175 1.61304e-010 -26.8452 -0.345056 -2.92038 10.3834 -0.00827 2.19254e-010 -8.2824 0.423928 -2.90958 10.3852 -0.008052 2.5249e-010 15.7441 -1.34588 -6.53524 10.3847 -0.008152 2.9878e-010 12.4855 -0.633082 -2.85668 9e-006 -1.5e-005 -8.75617 -93.2033 -17.2092 170.77 19.7638 0 0 -58.5146 0.00031474 0.00102978 18.6534 -7.10543e-015 0 -28.2325 -1.15705 6.34585 5.09143 13.9567 8.89671e-011 114.938 3.48724 2.48652 4.288 -1e-006 6.75016e-014 53.6716 8.43271 1.28952 3.85799 1.19904e-014 -7.10543e-015 -45 -1.14938e-005 3.01454e-007 -1.7e-005 1.1e-005 8.75617 -108.902 -3.51303 179.489 19.7638 2e-006 -2.30926e-014 -63.9504 4.84948e-005 0.000209476 18.6534 3e-006 -6.03961e-014 -25.68 1.08557 -1.32936 5.09143 13.9567 -8.33235e-007 115.256 0.0045082 5.00841 4.288 1.06581e-014 1e-006 51.474 -6.03002 0.26355 3.85799 -1.46549e-013 -2e-006 -45 -1.38302e-005 -1.55337e-005 9.12717 -0.006404 -0.622128 1.97427 0.219437 6.34734 8.04366 -0.006401 -2.87759e-009 4.32951e-005 5.77253e-005 2.45708 8.04367 -0.006401 -1.43865e-009 -1.56334 -0.0668802 2.45084 8.04304 -0.008319 -9.47241e-010 -6.17728 -0.418836 3.90189 10.67 1.06796 1.99131e-006 -29.014 -6.57707 -3.03419 -2.27563 -4.5137 -9.52045 18.5304 -87.2916 -75.3146 19.0492 -3.55272e-015 0 91.0228 18.5244 -99.8933 10.3706 -3.55272e-015 0 -39.6561 0.0003071 0.000437186 22.8631 3e-006 -3.73035e-013 -21.0681 16.9069 0.143345 6.48256 0.103653 0.504498 -68.7322 -2.18849 -14.2873 3.66843 1e-006 1e-006 34.6071 1.74359e-005 -1.06326e-006 -1.30762 -6.58697 8.42997 -153.481 78.1594 -112.635 19.0492 1.59872e-013 7e-006 100.761 -16.8698 107.434 10.3706 -1e-006 -2.23377e-013 -34.8995 0.0014521 0.00177834 22.8631 -1e-006 -2.02061e-013 -17.4294 -6.64772 2.06297 6.48255 0.103653 -0.504496 -81.9749 -0.715768 15.4829 3.66843 1e-006 -2e-006 40.107 -3.2185e-005 1.49572e-005 7.52562 -0.006725 -1.4909e-011 -11.572 12.4107 -0.106818 8.47686 -0.006454 4.49508e-010 7.67163 -17.0084 -3.05525 8.41605 1.77636e-014 7.10543e-015 -66.5835 13.4714 0.420285 -3e-006 1e-006 -3e-006 -23.1098 1.37701e-015 90 -4.9899e-008 -0.5 5.28693e-006 -73.3878 90 163.388 0 0 0 -113.549 7.01671e-015 -180 2.8863 13.9448 3.88993 -22.989 1.37021e-015 90 0 0 0 -83.9911 -3.05176e-005 -180 0 0 0 -115.662 7.39726e-006 -5.07627e-005 0 0 0 128.443 0.37872 -1.0199 0 0 0 2.0456 -9.84003e-007 4.25157e-007 0 0 0 -20.5016 7.72272e-005 -3.82429e-006 0 0 0 -26.1943 -8.93593e-005 -3.8604e-005 15.5776 -0.000396 -6.99976e-006 2.67248e-033 7.70291e-016 -1.98785e-016 9.40334 1.03972 -6.51764 -23.4732 23.1772 16.0579 2.77017 -0.006404 1.0023e-006 2.42723 6.7136 -7.35027 9.40368 1.03968 6.51767 -23.7416 -23.7523 -14.959 2.77018 -0.00641201 -1.00166e-006 2.39774 -8.95324 8.56167 
